<svg xmlns="http://www.w3.org/2000/svg" width="414" height="148" viewBox="0 0 414 148" role="img" aria-label="Tailwind CSS: The CampusConnect design system, in light and dark themes"><rect x="4.5" y="4.5" width="405" height="139" rx="16" fill="#ffffff" stroke="#e6e1db"/><rect x="4.5" y="24" width="4" height="100" rx="2" fill="#c15f3c"/><g transform="translate(26 20) scale(0.1797)"><g fill="none"><rect width="256" height="256" fill="#f4f2ed" rx="60"/><path fill="url(#SVGdgekOdZf)" fill-rule="evenodd" d="M83 110q9-36 45-36c36 0 40.5 27 58.5 31.5q18 4.5 31.5-13.5q-9 36-45 36c-36 0-40.5-27-58.5-31.5Q96.5 92 83 110m-45 54q9-36 45-36c36 0 40.5 27 58.5 31.5q18 4.5 31.5-13.5q-9 36-45 36c-36 0-40.5-27-58.5-31.5q-18-4.5-31.5 13.5" clip-rule="evenodd"/><defs><linearGradient id="SVGdgekOdZf" x1="86.5" x2="163.5" y1="74" y2="185.5" gradientUnits="userSpaceOnUse"><stop stop-color="#32b1c1"/><stop offset="1" stop-color="#14c6b7"/></linearGradient></defs></g></g><text x="86" y="56" font-family="'Segoe UI', -apple-system, BlinkMacSystemFont, 'Helvetica Neue', Helvetica, Arial, sans-serif" font-size="23" font-weight="700" fill="#1b1815">Tailwind CSS</text><text x="26" y="102" font-family="'Segoe UI', -apple-system, BlinkMacSystemFont, 'Helvetica Neue', Helvetica, Arial, sans-serif" font-size="18" fill="#6b5f53">The CampusConnect design system, in</text><text x="26" y="126" font-family="'Segoe UI', -apple-system, BlinkMacSystemFont, 'Helvetica Neue', Helvetica, Arial, sans-serif" font-size="18" fill="#6b5f53">light and dark themes</text></svg>